<mxfile host="app.diagrams.net" agent="Mozilla/5.0 (X11; Linux x86_64) AppleWebKit/537.36 (KHTML, like Gecko) Chrome/128.0.6613.648 YaBrowser/24.10.4.648 (beta) Yowser/2.5 Safari/537.36" version="26.1.3">
  <diagram name="Страница — 1" id="2_TxXEPHuBMpBulZdCSg">
    <mxGraphModel dx="711" dy="455" grid="1" gridSize="10" guides="1" tooltips="1" connect="1" arrows="1" fold="1" page="1" pageScale="1" pageWidth="1169" pageHeight="827" math="0" shadow="0">
      <root>
        <mxCell id="0" />
        <mxCell id="1" parent="0" />
        <mxCell id="LYVo6MrUa6gub_QLdq8h-3" style="edgeStyle=orthogonalEdgeStyle;rounded=0;orthogonalLoop=1;jettySize=auto;html=1;" edge="1" parent="1" source="LYVo6MrUa6gub_QLdq8h-1">
          <mxGeometry relative="1" as="geometry">
            <mxPoint x="930" y="210" as="targetPoint" />
          </mxGeometry>
        </mxCell>
        <mxCell id="LYVo6MrUa6gub_QLdq8h-1" value="" style="rounded=0;whiteSpace=wrap;html=1;" vertex="1" parent="1">
          <mxGeometry x="150" y="90" width="480" height="240" as="geometry" />
        </mxCell>
        <mxCell id="LYVo6MrUa6gub_QLdq8h-2" value="&lt;h1 style=&quot;margin-top: 0px;&quot;&gt;Heading&lt;/h1&gt;&lt;p&gt;Lorem ipsum dolor sit amet, consectetur adipisicing elit, sed do eiusmod tempor incididunt ut labore et dolore magna aliqua.&lt;/p&gt;" style="text;html=1;whiteSpace=wrap;overflow=hidden;rounded=0;fillColor=#dae8fc;strokeColor=#6c8ebf;" vertex="1" parent="1">
          <mxGeometry x="270" y="170" width="180" height="120" as="geometry" />
        </mxCell>
        <mxCell id="LYVo6MrUa6gub_QLdq8h-4" value="" style="childLayout=tableLayout;recursiveResize=0;shadow=0;fillColor=none;" vertex="1" parent="1">
          <mxGeometry x="80" y="420" width="180" height="140" as="geometry" />
        </mxCell>
        <mxCell id="LYVo6MrUa6gub_QLdq8h-5" value="" style="shape=tableRow;horizontal=0;startSize=0;swimlaneHead=0;swimlaneBody=0;top=0;left=0;bottom=0;right=0;dropTarget=0;collapsible=0;recursiveResize=0;expand=0;fontStyle=0;fillColor=none;strokeColor=inherit;" vertex="1" parent="LYVo6MrUa6gub_QLdq8h-4">
          <mxGeometry width="180" height="47" as="geometry" />
        </mxCell>
        <mxCell id="LYVo6MrUa6gub_QLdq8h-6" value="Value 1" style="connectable=0;recursiveResize=0;strokeColor=inherit;fillColor=none;align=center;whiteSpace=wrap;html=1;" vertex="1" parent="LYVo6MrUa6gub_QLdq8h-5">
          <mxGeometry width="60" height="47" as="geometry">
            <mxRectangle width="60" height="47" as="alternateBounds" />
          </mxGeometry>
        </mxCell>
        <mxCell id="LYVo6MrUa6gub_QLdq8h-7" value="Value 2" style="connectable=0;recursiveResize=0;strokeColor=inherit;fillColor=none;align=center;whiteSpace=wrap;html=1;" vertex="1" parent="LYVo6MrUa6gub_QLdq8h-5">
          <mxGeometry x="60" width="60" height="47" as="geometry">
            <mxRectangle width="60" height="47" as="alternateBounds" />
          </mxGeometry>
        </mxCell>
        <mxCell id="LYVo6MrUa6gub_QLdq8h-8" value="Value 3" style="connectable=0;recursiveResize=0;strokeColor=inherit;fillColor=none;align=center;whiteSpace=wrap;html=1;" vertex="1" parent="LYVo6MrUa6gub_QLdq8h-5">
          <mxGeometry x="120" width="60" height="47" as="geometry">
            <mxRectangle width="60" height="47" as="alternateBounds" />
          </mxGeometry>
        </mxCell>
        <mxCell id="LYVo6MrUa6gub_QLdq8h-9" style="shape=tableRow;horizontal=0;startSize=0;swimlaneHead=0;swimlaneBody=0;top=0;left=0;bottom=0;right=0;dropTarget=0;collapsible=0;recursiveResize=0;expand=0;fontStyle=0;fillColor=none;strokeColor=inherit;" vertex="1" parent="LYVo6MrUa6gub_QLdq8h-4">
          <mxGeometry y="47" width="180" height="46" as="geometry" />
        </mxCell>
        <mxCell id="LYVo6MrUa6gub_QLdq8h-10" value="Value 4" style="connectable=0;recursiveResize=0;strokeColor=inherit;fillColor=none;align=center;whiteSpace=wrap;html=1;" vertex="1" parent="LYVo6MrUa6gub_QLdq8h-9">
          <mxGeometry width="60" height="46" as="geometry">
            <mxRectangle width="60" height="46" as="alternateBounds" />
          </mxGeometry>
        </mxCell>
        <mxCell id="LYVo6MrUa6gub_QLdq8h-11" value="Value 5" style="connectable=0;recursiveResize=0;strokeColor=inherit;fillColor=none;align=center;whiteSpace=wrap;html=1;" vertex="1" parent="LYVo6MrUa6gub_QLdq8h-9">
          <mxGeometry x="60" width="60" height="46" as="geometry">
            <mxRectangle width="60" height="46" as="alternateBounds" />
          </mxGeometry>
        </mxCell>
        <mxCell id="LYVo6MrUa6gub_QLdq8h-12" value="Value 6" style="connectable=0;recursiveResize=0;strokeColor=inherit;fillColor=none;align=center;whiteSpace=wrap;html=1;" vertex="1" parent="LYVo6MrUa6gub_QLdq8h-9">
          <mxGeometry x="120" width="60" height="46" as="geometry">
            <mxRectangle width="60" height="46" as="alternateBounds" />
          </mxGeometry>
        </mxCell>
        <mxCell id="LYVo6MrUa6gub_QLdq8h-13" style="shape=tableRow;horizontal=0;startSize=0;swimlaneHead=0;swimlaneBody=0;top=0;left=0;bottom=0;right=0;dropTarget=0;collapsible=0;recursiveResize=0;expand=0;fontStyle=0;fillColor=none;strokeColor=inherit;" vertex="1" parent="LYVo6MrUa6gub_QLdq8h-4">
          <mxGeometry y="93" width="180" height="47" as="geometry" />
        </mxCell>
        <mxCell id="LYVo6MrUa6gub_QLdq8h-14" value="Value 7" style="connectable=0;recursiveResize=0;strokeColor=inherit;fillColor=none;align=center;whiteSpace=wrap;html=1;" vertex="1" parent="LYVo6MrUa6gub_QLdq8h-13">
          <mxGeometry width="60" height="47" as="geometry">
            <mxRectangle width="60" height="47" as="alternateBounds" />
          </mxGeometry>
        </mxCell>
        <mxCell id="LYVo6MrUa6gub_QLdq8h-15" value="Value 8" style="connectable=0;recursiveResize=0;strokeColor=inherit;fillColor=none;align=center;whiteSpace=wrap;html=1;" vertex="1" parent="LYVo6MrUa6gub_QLdq8h-13">
          <mxGeometry x="60" width="60" height="47" as="geometry">
            <mxRectangle width="60" height="47" as="alternateBounds" />
          </mxGeometry>
        </mxCell>
        <mxCell id="LYVo6MrUa6gub_QLdq8h-16" value="Value 9" style="connectable=0;recursiveResize=0;strokeColor=inherit;fillColor=none;align=center;whiteSpace=wrap;html=1;" vertex="1" parent="LYVo6MrUa6gub_QLdq8h-13">
          <mxGeometry x="120" width="60" height="47" as="geometry">
            <mxRectangle width="60" height="47" as="alternateBounds" />
          </mxGeometry>
        </mxCell>
        <mxCell id="LYVo6MrUa6gub_QLdq8h-17" value="Cross-Functional Flowchart" style="shape=table;childLayout=tableLayout;startSize=40;collapsible=0;recursiveResize=0;expand=0;fontSize=16;" vertex="1" parent="1">
          <mxGeometry x="350" y="370" width="400" height="400" as="geometry" />
        </mxCell>
        <mxCell id="LYVo6MrUa6gub_QLdq8h-18" value="Actor 1" style="shape=tableRow;horizontal=0;swimlaneHead=0;swimlaneBody=0;top=0;left=0;strokeColor=inherit;bottom=0;right=0;dropTarget=0;fontStyle=0;fillColor=none;points=[[0,0.5],[1,0.5]];portConstraint=eastwest;startSize=40;collapsible=0;recursiveResize=0;expand=0;fontSize=16;" vertex="1" parent="LYVo6MrUa6gub_QLdq8h-17">
          <mxGeometry y="40" width="400" height="120" as="geometry" />
        </mxCell>
        <mxCell id="LYVo6MrUa6gub_QLdq8h-19" value="Phase 1" style="swimlane;swimlaneHead=0;swimlaneBody=0;fontStyle=0;strokeColor=inherit;connectable=0;fillColor=none;startSize=40;collapsible=0;recursiveResize=0;expand=0;fontSize=16;" vertex="1" parent="LYVo6MrUa6gub_QLdq8h-18">
          <mxGeometry x="40" width="120" height="120" as="geometry">
            <mxRectangle width="120" height="120" as="alternateBounds" />
          </mxGeometry>
        </mxCell>
        <mxCell id="LYVo6MrUa6gub_QLdq8h-20" value="Phase 2" style="swimlane;swimlaneHead=0;swimlaneBody=0;fontStyle=0;strokeColor=inherit;connectable=0;fillColor=none;startSize=40;collapsible=0;recursiveResize=0;expand=0;fontSize=16;" vertex="1" parent="LYVo6MrUa6gub_QLdq8h-18">
          <mxGeometry x="160" width="120" height="120" as="geometry">
            <mxRectangle width="120" height="120" as="alternateBounds" />
          </mxGeometry>
        </mxCell>
        <mxCell id="LYVo6MrUa6gub_QLdq8h-21" value="Phase 3" style="swimlane;swimlaneHead=0;swimlaneBody=0;fontStyle=0;strokeColor=inherit;connectable=0;fillColor=none;startSize=40;collapsible=0;recursiveResize=0;expand=0;fontSize=16;" vertex="1" parent="LYVo6MrUa6gub_QLdq8h-18">
          <mxGeometry x="280" width="120" height="120" as="geometry">
            <mxRectangle width="120" height="120" as="alternateBounds" />
          </mxGeometry>
        </mxCell>
        <mxCell id="LYVo6MrUa6gub_QLdq8h-22" value="Actor 2" style="shape=tableRow;horizontal=0;swimlaneHead=0;swimlaneBody=0;top=0;left=0;strokeColor=inherit;bottom=0;right=0;dropTarget=0;fontStyle=0;fillColor=none;points=[[0,0.5],[1,0.5]];portConstraint=eastwest;startSize=40;collapsible=0;recursiveResize=0;expand=0;fontSize=16;" vertex="1" parent="LYVo6MrUa6gub_QLdq8h-17">
          <mxGeometry y="160" width="400" height="120" as="geometry" />
        </mxCell>
        <mxCell id="LYVo6MrUa6gub_QLdq8h-23" value="" style="swimlane;swimlaneHead=0;swimlaneBody=0;fontStyle=0;connectable=0;strokeColor=inherit;fillColor=none;startSize=0;collapsible=0;recursiveResize=0;expand=0;fontSize=16;" vertex="1" parent="LYVo6MrUa6gub_QLdq8h-22">
          <mxGeometry x="40" width="120" height="120" as="geometry">
            <mxRectangle width="120" height="120" as="alternateBounds" />
          </mxGeometry>
        </mxCell>
        <mxCell id="LYVo6MrUa6gub_QLdq8h-24" value="" style="swimlane;swimlaneHead=0;swimlaneBody=0;fontStyle=0;connectable=0;strokeColor=inherit;fillColor=none;startSize=0;collapsible=0;recursiveResize=0;expand=0;fontSize=16;" vertex="1" parent="LYVo6MrUa6gub_QLdq8h-22">
          <mxGeometry x="160" width="120" height="120" as="geometry">
            <mxRectangle width="120" height="120" as="alternateBounds" />
          </mxGeometry>
        </mxCell>
        <mxCell id="LYVo6MrUa6gub_QLdq8h-25" value="" style="swimlane;swimlaneHead=0;swimlaneBody=0;fontStyle=0;connectable=0;strokeColor=inherit;fillColor=none;startSize=0;collapsible=0;recursiveResize=0;expand=0;fontSize=16;" vertex="1" parent="LYVo6MrUa6gub_QLdq8h-22">
          <mxGeometry x="280" width="120" height="120" as="geometry">
            <mxRectangle width="120" height="120" as="alternateBounds" />
          </mxGeometry>
        </mxCell>
        <mxCell id="LYVo6MrUa6gub_QLdq8h-26" value="Actor 3" style="shape=tableRow;horizontal=0;swimlaneHead=0;swimlaneBody=0;top=0;left=0;strokeColor=inherit;bottom=0;right=0;dropTarget=0;fontStyle=0;fillColor=none;points=[[0,0.5],[1,0.5]];portConstraint=eastwest;startSize=40;collapsible=0;recursiveResize=0;expand=0;fontSize=16;" vertex="1" parent="LYVo6MrUa6gub_QLdq8h-17">
          <mxGeometry y="280" width="400" height="120" as="geometry" />
        </mxCell>
        <mxCell id="LYVo6MrUa6gub_QLdq8h-27" value="" style="swimlane;swimlaneHead=0;swimlaneBody=0;fontStyle=0;connectable=0;strokeColor=inherit;fillColor=none;startSize=0;collapsible=0;recursiveResize=0;expand=0;fontSize=16;" vertex="1" parent="LYVo6MrUa6gub_QLdq8h-26">
          <mxGeometry x="40" width="120" height="120" as="geometry">
            <mxRectangle width="120" height="120" as="alternateBounds" />
          </mxGeometry>
        </mxCell>
        <mxCell id="LYVo6MrUa6gub_QLdq8h-28" value="" style="swimlane;swimlaneHead=0;swimlaneBody=0;fontStyle=0;connectable=0;strokeColor=inherit;fillColor=none;startSize=0;collapsible=0;recursiveResize=0;expand=0;fontSize=16;" vertex="1" parent="LYVo6MrUa6gub_QLdq8h-26">
          <mxGeometry x="160" width="120" height="120" as="geometry">
            <mxRectangle width="120" height="120" as="alternateBounds" />
          </mxGeometry>
        </mxCell>
        <mxCell id="LYVo6MrUa6gub_QLdq8h-29" value="" style="swimlane;swimlaneHead=0;swimlaneBody=0;fontStyle=0;connectable=0;strokeColor=inherit;fillColor=none;startSize=0;collapsible=0;recursiveResize=0;expand=0;fontSize=16;" vertex="1" parent="LYVo6MrUa6gub_QLdq8h-26">
          <mxGeometry x="280" width="120" height="120" as="geometry">
            <mxRectangle width="120" height="120" as="alternateBounds" />
          </mxGeometry>
        </mxCell>
        <mxCell id="LYVo6MrUa6gub_QLdq8h-30" value="Vertical Flow Layout" style="swimlane;startSize=20;horizontal=1;childLayout=flowLayout;flowOrientation=north;resizable=0;interRankCellSpacing=50;containerType=tree;fontSize=12;" vertex="1" parent="1">
          <mxGeometry x="840" y="370" width="270" height="280" as="geometry" />
        </mxCell>
        <mxCell id="LYVo6MrUa6gub_QLdq8h-31" value="Start" style="whiteSpace=wrap;html=1;" vertex="1" parent="LYVo6MrUa6gub_QLdq8h-30">
          <mxGeometry x="85" y="40" width="100" height="40" as="geometry" />
        </mxCell>
        <mxCell id="LYVo6MrUa6gub_QLdq8h-32" value="Task" style="whiteSpace=wrap;html=1;" vertex="1" parent="LYVo6MrUa6gub_QLdq8h-30">
          <mxGeometry x="20" y="130" width="100" height="40" as="geometry" />
        </mxCell>
        <mxCell id="LYVo6MrUa6gub_QLdq8h-33" value="" style="html=1;rounded=1;curved=0;sourcePerimeterSpacing=0;targetPerimeterSpacing=0;startSize=6;endSize=6;noEdgeStyle=1;orthogonal=1;" edge="1" parent="LYVo6MrUa6gub_QLdq8h-30" source="LYVo6MrUa6gub_QLdq8h-31" target="LYVo6MrUa6gub_QLdq8h-32">
          <mxGeometry relative="1" as="geometry">
            <Array as="points">
              <mxPoint x="112.5" y="92" />
              <mxPoint x="70" y="118" />
            </Array>
          </mxGeometry>
        </mxCell>
        <mxCell id="LYVo6MrUa6gub_QLdq8h-34" value="Task" style="whiteSpace=wrap;html=1;" vertex="1" parent="LYVo6MrUa6gub_QLdq8h-30">
          <mxGeometry x="150" y="130" width="100" height="40" as="geometry" />
        </mxCell>
        <mxCell id="LYVo6MrUa6gub_QLdq8h-35" value="" style="html=1;rounded=1;curved=0;sourcePerimeterSpacing=0;targetPerimeterSpacing=0;startSize=6;endSize=6;noEdgeStyle=1;orthogonal=1;" edge="1" parent="LYVo6MrUa6gub_QLdq8h-30" source="LYVo6MrUa6gub_QLdq8h-31" target="LYVo6MrUa6gub_QLdq8h-34">
          <mxGeometry relative="1" as="geometry">
            <Array as="points">
              <mxPoint x="157.5" y="92" />
              <mxPoint x="200" y="118" />
            </Array>
          </mxGeometry>
        </mxCell>
        <mxCell id="LYVo6MrUa6gub_QLdq8h-36" value="End" style="whiteSpace=wrap;html=1;" vertex="1" parent="LYVo6MrUa6gub_QLdq8h-30">
          <mxGeometry x="85" y="220" width="100" height="40" as="geometry" />
        </mxCell>
        <mxCell id="LYVo6MrUa6gub_QLdq8h-37" value="" style="html=1;rounded=1;curved=0;sourcePerimeterSpacing=0;targetPerimeterSpacing=0;startSize=6;endSize=6;noEdgeStyle=1;orthogonal=1;" edge="1" parent="LYVo6MrUa6gub_QLdq8h-30" source="LYVo6MrUa6gub_QLdq8h-32" target="LYVo6MrUa6gub_QLdq8h-36">
          <mxGeometry relative="1" as="geometry">
            <Array as="points">
              <mxPoint x="70" y="182" />
              <mxPoint x="112.5" y="208" />
            </Array>
          </mxGeometry>
        </mxCell>
        <mxCell id="LYVo6MrUa6gub_QLdq8h-38" value="" style="html=1;rounded=1;curved=0;sourcePerimeterSpacing=0;targetPerimeterSpacing=0;startSize=6;endSize=6;noEdgeStyle=1;orthogonal=1;" edge="1" parent="LYVo6MrUa6gub_QLdq8h-30" source="LYVo6MrUa6gub_QLdq8h-34" target="LYVo6MrUa6gub_QLdq8h-36">
          <mxGeometry relative="1" as="geometry">
            <Array as="points">
              <mxPoint x="200" y="182" />
              <mxPoint x="157.5" y="208" />
            </Array>
          </mxGeometry>
        </mxCell>
        <object placeholders="1" c4Name="Person name" c4Type="Person" c4Description="Description of person." label="&lt;font style=&quot;font-size: 16px&quot;&gt;&lt;b&gt;%c4Name%&lt;/b&gt;&lt;/font&gt;&lt;div&gt;[%c4Type%]&lt;/div&gt;&lt;br&gt;&lt;div&gt;&lt;font style=&quot;font-size: 11px&quot;&gt;&lt;font color=&quot;#cccccc&quot;&gt;%c4Description%&lt;/font&gt;&lt;/div&gt;" id="LYVo6MrUa6gub_QLdq8h-39">
          <mxCell style="html=1;fontSize=11;dashed=0;whiteSpace=wrap;fillColor=#d5e8d4;strokeColor=#82b366;shape=mxgraph.c4.person2;align=center;metaEdit=1;points=[[0.5,0,0],[1,0.5,0],[1,0.75,0],[0.75,1,0],[0.5,1,0],[0.25,1,0],[0,0.75,0],[0,0.5,0]];resizable=0;" vertex="1" parent="1">
            <mxGeometry x="969" y="80" width="200" height="180" as="geometry" />
          </mxCell>
        </object>
        <mxCell id="LYVo6MrUa6gub_QLdq8h-43" value="BaseStack" style="swimlane;fontStyle=0;childLayout=stackLayout;horizontal=1;startSize=26;fillColor=none;horizontalStack=0;resizeParent=1;resizeParentMax=0;resizeLast=0;collapsible=1;marginBottom=0;whiteSpace=wrap;html=1;" vertex="1" parent="1">
          <mxGeometry x="1470" y="57" width="140" height="104" as="geometry" />
        </mxCell>
        <mxCell id="LYVo6MrUa6gub_QLdq8h-44" value="+ field: type" style="text;strokeColor=none;fillColor=none;align=left;verticalAlign=top;spacingLeft=4;spacingRight=4;overflow=hidden;rotatable=0;points=[[0,0.5],[1,0.5]];portConstraint=eastwest;whiteSpace=wrap;html=1;" vertex="1" parent="LYVo6MrUa6gub_QLdq8h-43">
          <mxGeometry y="26" width="140" height="26" as="geometry" />
        </mxCell>
        <mxCell id="LYVo6MrUa6gub_QLdq8h-45" value="+ field: type" style="text;strokeColor=none;fillColor=none;align=left;verticalAlign=top;spacingLeft=4;spacingRight=4;overflow=hidden;rotatable=0;points=[[0,0.5],[1,0.5]];portConstraint=eastwest;whiteSpace=wrap;html=1;" vertex="1" parent="LYVo6MrUa6gub_QLdq8h-43">
          <mxGeometry y="52" width="140" height="26" as="geometry" />
        </mxCell>
        <mxCell id="LYVo6MrUa6gub_QLdq8h-46" value="+ field: type" style="text;strokeColor=none;fillColor=none;align=left;verticalAlign=top;spacingLeft=4;spacingRight=4;overflow=hidden;rotatable=0;points=[[0,0.5],[1,0.5]];portConstraint=eastwest;whiteSpace=wrap;html=1;" vertex="1" parent="LYVo6MrUa6gub_QLdq8h-43">
          <mxGeometry y="78" width="140" height="26" as="geometry" />
        </mxCell>
        <mxCell id="LYVo6MrUa6gub_QLdq8h-51" style="edgeStyle=orthogonalEdgeStyle;rounded=0;orthogonalLoop=1;jettySize=auto;html=1;entryX=0.52;entryY=1.02;entryDx=0;entryDy=0;entryPerimeter=0;exitX=0.5;exitY=0;exitDx=0;exitDy=0;" edge="1" parent="1" source="LYVo6MrUa6gub_QLdq8h-58" target="LYVo6MrUa6gub_QLdq8h-46">
          <mxGeometry relative="1" as="geometry">
            <mxPoint x="1430.034482758621" y="220" as="sourcePoint" />
          </mxGeometry>
        </mxCell>
        <mxCell id="LYVo6MrUa6gub_QLdq8h-57" style="edgeStyle=orthogonalEdgeStyle;rounded=0;orthogonalLoop=1;jettySize=auto;html=1;entryX=0.524;entryY=1.01;entryDx=0;entryDy=0;entryPerimeter=0;exitX=0.5;exitY=0;exitDx=0;exitDy=0;" edge="1" parent="1" source="LYVo6MrUa6gub_QLdq8h-60" target="LYVo6MrUa6gub_QLdq8h-46">
          <mxGeometry relative="1" as="geometry">
            <mxPoint x="1670" y="220" as="sourcePoint" />
          </mxGeometry>
        </mxCell>
        <mxCell id="LYVo6MrUa6gub_QLdq8h-58" value="&lt;p style=&quot;margin:0px;margin-top:4px;text-align:center;&quot;&gt;StackArr&lt;br&gt;&lt;/p&gt;&lt;hr size=&quot;1&quot; style=&quot;border-style:solid;&quot;&gt;&lt;p style=&quot;margin:0px;margin-left:4px;&quot;&gt;- data_: T[]&lt;/p&gt;&lt;hr size=&quot;1&quot; style=&quot;border-style:solid;&quot;&gt;&lt;p style=&quot;margin:0px;margin-left:4px;&quot;&gt;+ method(): Type&lt;/p&gt;" style="verticalAlign=top;align=left;overflow=fill;html=1;whiteSpace=wrap;" vertex="1" parent="1">
          <mxGeometry x="1320" y="220" width="160" height="90" as="geometry" />
        </mxCell>
        <mxCell id="LYVo6MrUa6gub_QLdq8h-60" value="&lt;p style=&quot;margin:0px;margin-top:4px;text-align:center;&quot;&gt;&lt;b&gt;StackLst&lt;/b&gt;&lt;/p&gt;&lt;hr size=&quot;1&quot; style=&quot;border-style:solid;&quot;&gt;&lt;p style=&quot;margin:0px;margin-left:4px;&quot;&gt;- node_head: Node&lt;/p&gt;&lt;hr size=&quot;1&quot; style=&quot;border-style:solid;&quot;&gt;&lt;p style=&quot;margin:0px;margin-left:4px;&quot;&gt;+ method(): Type&lt;/p&gt;" style="verticalAlign=top;align=left;overflow=fill;html=1;whiteSpace=wrap;" vertex="1" parent="1">
          <mxGeometry x="1594" y="220" width="160" height="90" as="geometry" />
        </mxCell>
        <mxCell id="LYVo6MrUa6gub_QLdq8h-62" value="Node" style="swimlane;fontStyle=0;childLayout=stackLayout;horizontal=1;startSize=26;fillColor=none;horizontalStack=0;resizeParent=1;resizeParentMax=0;resizeLast=0;collapsible=1;marginBottom=0;whiteSpace=wrap;html=1;" vertex="1" parent="1">
          <mxGeometry x="1800" y="212" width="140" height="78" as="geometry" />
        </mxCell>
        <mxCell id="LYVo6MrUa6gub_QLdq8h-63" value="+ field: type" style="text;strokeColor=none;fillColor=none;align=left;verticalAlign=top;spacingLeft=4;spacingRight=4;overflow=hidden;rotatable=0;points=[[0,0.5],[1,0.5]];portConstraint=eastwest;whiteSpace=wrap;html=1;" vertex="1" parent="LYVo6MrUa6gub_QLdq8h-62">
          <mxGeometry y="26" width="140" height="26" as="geometry" />
        </mxCell>
        <mxCell id="LYVo6MrUa6gub_QLdq8h-64" value="+ field: type" style="text;strokeColor=none;fillColor=none;align=left;verticalAlign=top;spacingLeft=4;spacingRight=4;overflow=hidden;rotatable=0;points=[[0,0.5],[1,0.5]];portConstraint=eastwest;whiteSpace=wrap;html=1;" vertex="1" parent="LYVo6MrUa6gub_QLdq8h-62">
          <mxGeometry y="52" width="140" height="26" as="geometry" />
        </mxCell>
        <mxCell id="LYVo6MrUa6gub_QLdq8h-66" style="edgeStyle=orthogonalEdgeStyle;rounded=0;orthogonalLoop=1;jettySize=auto;html=1;entryX=-0.005;entryY=0.158;entryDx=0;entryDy=0;entryPerimeter=0;dashed=1;" edge="1" parent="1" source="LYVo6MrUa6gub_QLdq8h-60" target="LYVo6MrUa6gub_QLdq8h-62">
          <mxGeometry relative="1" as="geometry" />
        </mxCell>
      </root>
    </mxGraphModel>
  </diagram>
</mxfile>
